/* XPM */
static char *_8e020a6530f32d8438d012ba184eef2[] = {
/* columns rows colors chars-per-pixel */
"75 75 2 1 ",
"  c None",
". c black",
/* pixels */
"                                                                           ",
"                                                                           ",
"                                                                           ",
"                                                                           ",
"                                                                           ",
"                                                                           ",
"                                                                           ",
"                                                                           ",
"                                                                           ",
"                                                                           ",
"                                                                           ",
"                                                                           ",
"                                                                           ",
"         .......................                                           ",
"        .........................                                          ",
"       ...........................                                         ",
"       ............................                                        ",
"      ..............................                                       ",
"      ...............................                                      ",
"      ........................................................             ",
"      ..........................................................           ",
"      ...........................................................          ",
"      ...........................................................          ",
"      ...........................................................          ",
"      ............................................................         ",
"      .......                                                              ",
"      .......                                                              ",
"      .......                                                              ",
"      .......                                                              ",
"      .......                                                              ",
"      .......                                                              ",
"      .......      .....................................................   ",
"      .......      .....................................................   ",
"      .......     ......................................................   ",
"      .......     ......................................................   ",
"      .......     .....................................................    ",
"      .......     .....................................................    ",
"      .......    ......................................................    ",
"      .......    ......                                         .......    ",
"      .......    ......                                         ......     ",
"      .......    ......                                         ......     ",
"      .......   .......                                        .......     ",
"      .......   ......                                         ......      ",
"      .......   ......                                         ......      ",
"      .......   ......                                         ......      ",
"      .......  .......                                        .......      ",
"      .......  ......                                         ......       ",
"      .......  ......                                         ......       ",
"      .......  ......                                        .......       ",
"      ....... .......                                        .......       ",
"      ....... ......                                         ......        ",
"      ....... ......                                         ......        ",
"      ..............                                        .......        ",
"      .............                                         ......         ",
"      .............                                         ......         ",
"      .............                                         ......         ",
"      ............................................................         ",
"      ...........................................................          ",
"       ..........................................................          ",
"       ..........................................................          ",
"        ........................................................           ",
"         ......................................................            ",
"            ...............................................                ",
"                                                                           ",
"                                                                           ",
"                                                                           ",
"                                                                           ",
"                                                                           ",
"                                                                           ",
"                                                                           ",
"                                                                           ",
"                                                                           ",
"                                                                           ",
"                                                                           ",
"                                                                           "
};
