/* XPM */
static char *_6ec6fee4f4003d95c9afb85bdb524b0[] = {
/* columns rows colors chars-per-pixel */
"75 75 2 1 ",
"  c None",
". c black",
/* pixels */
"                                                                           ",
"                                                                           ",
"                                                                           ",
"                                                                           ",
"                                                                           ",
"                                                                           ",
"                                                                           ",
"                                                                           ",
"                                                                           ",
"                                                       .                   ",
"                                                     .....                 ",
"                                                    .......                ",
"                                                   .........               ",
"                                                  ...........              ",
"                                                 .............             ",
"                                                ...............            ",
"                                                ................           ",
"                                                 ................          ",
"                                                  ...............          ",
"                                                   ...............         ",
"                                           ..       .............          ",
"                                          ....       ............          ",
"                                         ......       ..........           ",
"                                        ........       ........            ",
"                                       ..........       ......             ",
"                                      ............       ....              ",
"                                     ..............       ..               ",
"                                    ................                       ",
"                                   ..................                      ",
"                                  ....................                     ",
"                                 ......................                    ",
"                                .......................                    ",
"                               .......................                     ",
"                              .......................                      ",
"                             .......................                       ",
"                            .......................                        ",
"                           .......................                         ",
"                          .......................                          ",
"                         .......................                           ",
"                        .......................                            ",
"                       .......................                             ",
"                      .......................                              ",
"                     .......................                               ",
"                    .......................                                ",
"                   .......................                                 ",
"                  .......................                                  ",
"                 .......................                                   ",
"                .......................                                    ",
"               .......................                                     ",
"              .......................                                      ",
"             .......................                                       ",
"            .......................                                        ",
"           .......................                                         ",
"          .......................                                          ",
"         .......................                                           ",
"         ......................                                            ",
"         .....................                                             ",
"         ....................                                              ",
"         ...................                                               ",
"         ..................                                                ",
"         .................                                                 ",
"         ................                                                  ",
"         ...............                                                   ",
"         ..............                                                    ",
"         .............                                                     ",
"          ...........                                                      ",
"                                                                           ",
"                                                                           ",
"                                                                           ",
"                                                                           ",
"                                                                           ",
"                                                                           ",
"                                                                           ",
"                                                                           ",
"                                                                           "
};
