/* XPM */
static char *c5771d0ca42ab683b577e1a696aff9da[] = {
/* columns rows colors chars-per-pixel */
"75 75 2 1 ",
"  c None",
". c black",
/* pixels */
"                                                                           ",
"                                                                           ",
"                                                                           ",
"                                                                           ",
"                                                                           ",
"                                                                           ",
"                                                                           ",
"                                                                           ",
"                                                                           ",
"                                                                           ",
"                                                                           ",
"                                                                           ",
"                                                                           ",
"                                                                           ",
"                                                                           ",
"                                                                           ",
"                         .                                                 ",
"                         ..                                                ",
"                         ....                                              ",
"                         .....                                             ",
"                         .......                                           ",
"                         .........                                         ",
"                         ..........                                        ",
"                         ............                                      ",
"                         .............                                     ",
"                         ...............                                   ",
"                         ................                                  ",
"                         ..................                                ",
"                         ....................                              ",
"                         .....................                             ",
"                         .......................                           ",
"                         ........................                          ",
"                         ..........................                        ",
"                         ...........................                       ",
"                         .............................                     ",
"                         ...............................                   ",
"                         ................................                  ",
"                         ..................................                ",
"                         ..................................                ",
"                         ................................                  ",
"                         ..............................                    ",
"                         .............................                     ",
"                         ...........................                       ",
"                         ..........................                        ",
"                         ........................                          ",
"                         .......................                           ",
"                         .....................                             ",
"                         ...................                               ",
"                         ..................                                ",
"                         ................                                  ",
"                         ...............                                   ",
"                         .............                                     ",
"                         ............                                      ",
"                         ..........                                        ",
"                         ........                                          ",
"                         .......                                           ",
"                         .....                                             ",
"                         ....                                              ",
"                         ..                                                ",
"                                                                           ",
"                                                                           ",
"                                                                           ",
"                                                                           ",
"                                                                           ",
"                                                                           ",
"                                                                           ",
"                                                                           ",
"                                                                           ",
"                                                                           ",
"                                                                           ",
"                                                                           ",
"                                                                           ",
"                                                                           ",
"                                                                           ",
"                                                                           "
};
