/* XPM */
static char *_9b7a7caf780de8e9cdce4f5af88bd21[] = {
/* columns rows colors chars-per-pixel */
"75 75 2 1 ",
"  c None",
". c black",
/* pixels */
"                                                                           ",
"                                                                           ",
"                                                                           ",
"                                                                           ",
"                                                                           ",
"                                                                           ",
"                                                                           ",
"                                                                           ",
"                                                                           ",
"                              ...............                              ",
"                             .................                             ",
"                            ...................                            ",
"                          .......................                          ",
"                ...........................................                ",
"                ...........................................                ",
"                ...........................................                ",
"                ...........................................                ",
"                ...........................................                ",
"                ...........................................                ",
"                                                                           ",
"                                                                           ",
"                                                                           ",
"                   .....................................                   ",
"                   .....................................                   ",
"                   .....................................                   ",
"                   .....................................                   ",
"                   .....................................                   ",
"                   .....................................                   ",
"                   .....................................                   ",
"                   .....................................                   ",
"                   .....................................                   ",
"                   .....................................                   ",
"                   .....................................                   ",
"                   .....................................                   ",
"                   .....................................                   ",
"                   .....................................                   ",
"                   .....................................                   ",
"                   .....................................                   ",
"                   .....................................                   ",
"                   .....................................                   ",
"                   .....................................                   ",
"                   .....................................                   ",
"                   .....................................                   ",
"                   .....................................                   ",
"                   .....................................                   ",
"                   .....................................                   ",
"                   .....................................                   ",
"                   .....................................                   ",
"                   .....................................                   ",
"                   .....................................                   ",
"                   .....................................                   ",
"                   .....................................                   ",
"                   .....................................                   ",
"                   .....................................                   ",
"                   .....................................                   ",
"                   .....................................                   ",
"                   .....................................                   ",
"                   .....................................                   ",
"                   .....................................                   ",
"                   .....................................                   ",
"                   .....................................                   ",
"                   .....................................                   ",
"                    ...................................                    ",
"                    ...................................                    ",
"                     .................................                     ",
"                        ...........................                        ",
"                                                                           ",
"                                                                           ",
"                                                                           ",
"                                                                           ",
"                                                                           ",
"                                                                           ",
"                                                                           ",
"                                                                           ",
"                                                                           "
};
