/* XPM */
static char *_b4748bef1f1dc49d21401d182a2bbc1[] = {
/* columns rows colors chars-per-pixel */
"75 75 2 1 ",
"  c None",
". c black",
/* pixels */
"                                                                           ",
"                                                                           ",
"                                                                           ",
"                                                                           ",
"                                                                           ",
"                                                                           ",
"                                                                           ",
"                                                                           ",
"                                                                           ",
"                                                                           ",
"                                                                           ",
"                                                                           ",
"                                                                           ",
"                                                                           ",
"                                                                           ",
"                                                                           ",
"                                  .......                                  ",
"                                  .......                                  ",
"                                  .......                                  ",
"                                  .......                                  ",
"                                  .......                                  ",
"                                  .......                                  ",
"                                  .......                                  ",
"                                  .......                                  ",
"                                  .......                                  ",
"                                  .......                                  ",
"                                  .......                                  ",
"                                  .......                                  ",
"                                  .......                                  ",
"                                  .......                                  ",
"                                  .......                                  ",
"                                  .......                                  ",
"                                  .......                                  ",
"                                  .......                                  ",
"                ...........................................                ",
"                ...........................................                ",
"                ...........................................                ",
"                ...........................................                ",
"                ...........................................                ",
"                ...........................................                ",
"                ...........................................                ",
"                                  .......                                  ",
"                                  .......                                  ",
"                                  .......                                  ",
"                                  .......                                  ",
"                                  .......                                  ",
"                                  .......                                  ",
"                                  .......                                  ",
"                                  .......                                  ",
"                                  .......                                  ",
"                                  .......                                  ",
"                                  .......                                  ",
"                                  .......                                  ",
"                                  .......                                  ",
"                                  .......                                  ",
"                                  .......                                  ",
"                                  .......                                  ",
"                                  .......                                  ",
"                                  .......                                  ",
"                                                                           ",
"                                                                           ",
"                                                                           ",
"                                                                           ",
"                                                                           ",
"                                                                           ",
"                                                                           ",
"                                                                           ",
"                                                                           ",
"                                                                           ",
"                                                                           ",
"                                                                           ",
"                                                                           ",
"                                                                           ",
"                                                                           ",
"                                                                           "
};
