/* XPM */
static char *_fbe83ef593d886d553458622b0a96aa[] = {
/* columns rows colors chars-per-pixel */
"75 75 2 1 ",
"  c None",
". c black",
/* pixels */
"                                                                           ",
"                                                                           ",
"                                                                           ",
"                                                                           ",
"                                                                           ",
"                                                                           ",
"                                                                           ",
"                                                                           ",
"                                                                           ",
"                                                                           ",
"                                                                           ",
"                                                                           ",
"                                                                           ",
"                                     .                                     ",
"                                    ...                                    ",
"                                   .....                                   ",
"                                  .......                                  ",
"                                 .........                                 ",
"                                ...........                                ",
"                               .............                               ",
"                              ...............                              ",
"                             .................                             ",
"                            ...................                            ",
"                           .....................                           ",
"                          .......................                          ",
"                         .........................                         ",
"                        ......... ....... .........                        ",
"                       .........  .......  .........                       ",
"                      .........   .......   .........                      ",
"                     .........    .......    .........                     ",
"                    .........     .......     .........                    ",
"                   .........      .......      .........                   ",
"                  .........       .......       .........                  ",
"                 .........        .......        .........                 ",
"                .........         .......         .........                ",
"               .........          .......          .........               ",
"              .........           .......           .........              ",
"             .........            .......            .........             ",
"              .......             .......             .......              ",
"               .....              .......              .....               ",
"                ...               .......               ...                ",
"                 .                .......                .                 ",
"                                  .......                                  ",
"                                  .......                                  ",
"                                  .......                                  ",
"                                  .......                                  ",
"                                  .......                                  ",
"                                  .......                                  ",
"                                  .......                                  ",
"                                  .......                                  ",
"                                  .......                                  ",
"                                  .......                                  ",
"                                  .......                                  ",
"                                  .......                                  ",
"                                  .......                                  ",
"                                  .......                                  ",
"                                  .......                                  ",
"                                  .......                                  ",
"                                  .......                                  ",
"                                  .......                                  ",
"                                  .......                                  ",
"                                  .......                                  ",
"                                   .....                                   ",
"                                                                           ",
"                                                                           ",
"                                                                           ",
"                                                                           ",
"                                                                           ",
"                                                                           ",
"                                                                           ",
"                                                                           ",
"                                                                           ",
"                                                                           ",
"                                                                           ",
"                                                                           "
};
