/* XPM */
static char *ea2ef47b7e3b511e3be709385013b104[] = {
/* columns rows colors chars-per-pixel */
"75 75 2 1 ",
"  c None",
". c black",
/* pixels */
"                                                                           ",
"                                                                           ",
"                                                                           ",
"                                                                           ",
"                                                                           ",
"                                                                           ",
"                                                                           ",
"                                                                           ",
"                                                                           ",
"                                                                           ",
"                                                                           ",
"                                                                           ",
"                                                                           ",
"                                  .......                                  ",
"                                  .......                                  ",
"                                  .......                                  ",
"                                  .......                                  ",
"                                  .......                                  ",
"                                  .......                                  ",
"                                  .......                                  ",
"                                  .......                                  ",
"                                  .......                                  ",
"                                  .......                                  ",
"                                  .......                                  ",
"                                  .......                                  ",
"                                  .......                                  ",
"                                  .......                                  ",
"                                  .......                                  ",
"                                  .......                                  ",
"                                  .......                                  ",
"                                  .......                                  ",
"                                  .......                                  ",
"                                  .......                                  ",
"                ..                .......                ..                ",
"               ....               .......               ....               ",
"              ......              .......              ......              ",
"             ........             .......             ........             ",
"             .........            .......            .........             ",
"              .........           .......           .........              ",
"               .........          .......          .........               ",
"                .........         .......         .........                ",
"                 .........        .......        .........                 ",
"                  .........       .......       .........                  ",
"                   .........      .......      .........                   ",
"                    .........     .......     .........                    ",
"                     .........    .......    .........                     ",
"                      .........   .......   .........                      ",
"                       .........  .......  .........                       ",
"                        ......... ....... .........                        ",
"                         .........................                         ",
"                          .......................                          ",
"                           .....................                           ",
"                            ...................                            ",
"                             .................                             ",
"                              ...............                              ",
"                               .............                               ",
"                                ...........                                ",
"                                 .........                                 ",
"                                  .......                                  ",
"                                   .....                                   ",
"                                    ...                                    ",
"                                     .                                     ",
"                                                                           ",
"                                                                           ",
"                                                                           ",
"                                                                           ",
"                                                                           ",
"                                                                           ",
"                                                                           ",
"                                                                           ",
"                                                                           ",
"                                                                           ",
"                                                                           ",
"                                                                           ",
"                                                                           "
};
